<svg width="49" height="49" viewBox="0 0 49 49" fill="none" xmlns="http://www.w3.org/2000/svg">
<g id="carbon:inspection">
<path id="Vector" d="M23 26.52L19.115 22.635L17 24.75L23 30.75L33.5 20.25L31.385 18.135L23 26.52Z" fill="#00558B"/>
<path id="Vector_2" d="M45.5 23.25H42.425C42.066 19.0141 40.2202 15.0418 37.2142 12.0358C34.2082 9.02984 30.2359 7.18404 26 6.825V3.75H23V6.825C18.7641 7.18404 14.7918 9.02984 11.7858 12.0358C8.77984 15.0418 6.93404 19.0141 6.575 23.25H3.5V26.25H6.575C6.93404 30.4859 8.77984 34.4582 11.7858 37.4642C14.7918 40.4702 18.7641 42.316 23 42.675V45.75H26V42.675C30.2359 42.316 34.2082 40.4702 37.2142 37.4642C40.2202 34.4582 42.066 30.4859 42.425 26.25H45.5V23.25ZM26 39.675V35.25H23V39.675C19.559 39.3244 16.3443 37.7973 13.8985 35.3515C11.4527 32.9057 9.92562 29.691 9.575 26.25H14V23.25H9.575C9.92562 19.809 11.4527 16.5943 13.8985 14.1485C16.3443 11.7027 19.559 10.1756 23 9.825V14.25H26V9.825C29.441 10.1756 32.6557 11.7027 35.1015 14.1485C37.5473 16.5943 39.0744 19.809 39.425 23.25H35V26.25H39.4235C39.0729 29.6908 37.5461 32.9053 35.1006 35.3511C32.6551 37.7968 29.4408 39.3241 26 39.675Z" fill="#00558B"/>
</g>
</svg>
