<svg width="49" height="48" viewBox="0 0 49 48" fill="none" xmlns="http://www.w3.org/2000/svg">
<g id="icon-park-outline:face-recognition">
<g id="Group">
<path id="Vector" d="M33.5 5H41.5C42.0304 5 42.5391 5.21071 42.9142 5.58579C43.2893 5.96086 43.5 6.46957 43.5 7V15M43.5 33V41C43.5 41.5304 43.2893 42.0391 42.9142 42.4142C42.5391 42.7893 42.0304 43 41.5 43H33.5M15.5 43H7.5C6.96957 43 6.46086 42.7893 6.08579 42.4142C5.71071 42.0391 5.5 41.5304 5.5 41V33M5.5 15V7C5.5 6.46957 5.71071 5.96086 6.08579 5.58579C6.46086 5.21071 6.96957 5 7.5 5H15.5" stroke="#00558B" stroke-width="3" stroke-linecap="round" stroke-linejoin="round"/>
<path id="Vector_2" d="M24.5 38C31.127 38 36.5 31.732 36.5 24C36.5 16.268 31.127 10 24.5 10C17.873 10 12.5 16.268 12.5 24C12.5 31.732 17.873 38 24.5 38Z" stroke="#00558B" stroke-width="3"/>
<path id="Vector_3" d="M6.5 24H42.5M20.57 30.106C21.837 31.043 23.147 31.511 24.5 31.511C25.852 31.511 27.198 31.043 28.538 30.106" stroke="#00558B" stroke-width="3" stroke-linecap="round"/>
</g>
</g>
</svg>
