<svg width="49" height="48" viewBox="0 0 49 48" fill="none" xmlns="http://www.w3.org/2000/svg">
<g id="ph:hand-palm">
<path id="Vector" d="M35.5 16.5001C34.7214 16.499 33.9525 16.6727 33.25 17.0082V11.2501C33.2498 10.3403 33.0131 9.44619 32.5632 8.65541C32.1134 7.86462 31.4657 7.20432 30.6838 6.73924C29.9018 6.27416 29.0124 6.02027 28.1028 6.00245C27.1932 5.98463 26.2946 6.2035 25.495 6.63761C25.1101 5.44808 24.3133 4.43496 23.248 3.78054C22.1827 3.12612 20.9188 2.87337 19.6837 3.06776C18.4487 3.26215 17.3235 3.89092 16.5108 4.84094C15.698 5.79096 15.2509 6.99985 15.25 8.25011V9.50823C14.5475 9.17265 13.7786 8.99901 13 9.00011C11.6076 9.00011 10.2723 9.55323 9.28769 10.5378C8.30312 11.5224 7.75 12.8577 7.75 14.2501V28.5001C7.75 32.8762 9.48839 37.073 12.5827 40.1674C15.6771 43.2617 19.8739 45.0001 24.25 45.0001C28.6261 45.0001 32.8229 43.2617 35.9173 40.1674C39.0116 37.073 40.75 32.8762 40.75 28.5001V21.7501C40.75 20.3577 40.1969 19.0224 39.2123 18.0378C38.2277 17.0532 36.8924 16.5001 35.5 16.5001ZM37.75 28.5001C37.75 32.0805 36.3277 35.5143 33.7959 38.046C31.2642 40.5778 27.8304 42.0001 24.25 42.0001C20.6696 42.0001 17.2358 40.5778 14.7041 38.046C12.1723 35.5143 10.75 32.0805 10.75 28.5001V14.2501C10.75 13.6534 10.9871 13.0811 11.409 12.6591C11.831 12.2372 12.4033 12.0001 13 12.0001C13.5967 12.0001 14.169 12.2372 14.591 12.6591C15.0129 13.0811 15.25 13.6534 15.25 14.2501V22.5001C15.25 22.8979 15.408 23.2795 15.6893 23.5608C15.9706 23.8421 16.3522 24.0001 16.75 24.0001C17.1478 24.0001 17.5294 23.8421 17.8107 23.5608C18.092 23.2795 18.25 22.8979 18.25 22.5001V8.25011C18.25 7.65337 18.4871 7.08107 18.909 6.65912C19.331 6.23716 19.9033 6.00011 20.5 6.00011C21.0967 6.00011 21.669 6.23716 22.091 6.65912C22.5129 7.08107 22.75 7.65337 22.75 8.25011V21.0001C22.75 21.3979 22.908 21.7795 23.1893 22.0608C23.4706 22.3421 23.8522 22.5001 24.25 22.5001C24.6478 22.5001 25.0294 22.3421 25.3107 22.0608C25.592 21.7795 25.75 21.3979 25.75 21.0001V11.2501C25.75 10.6534 25.9871 10.0811 26.409 9.65912C26.831 9.23716 27.4033 9.00011 28 9.00011C28.5967 9.00011 29.169 9.23716 29.591 9.65912C30.0129 10.0811 30.25 10.6534 30.25 11.2501V24.1257C28.1541 24.483 26.252 25.5696 24.8796 27.1935C23.5072 28.8173 22.7529 30.874 22.75 33.0001C22.75 33.3979 22.908 33.7795 23.1893 34.0608C23.4706 34.3421 23.8522 34.5001 24.25 34.5001C24.6478 34.5001 25.0294 34.3421 25.3107 34.0608C25.592 33.7795 25.75 33.3979 25.75 33.0001C25.75 31.4088 26.3821 29.8827 27.5074 28.7575C28.6326 27.6322 30.1587 27.0001 31.75 27.0001C32.1478 27.0001 32.5294 26.8421 32.8107 26.5608C33.092 26.2795 33.25 25.8979 33.25 25.5001V21.7501C33.25 21.1534 33.4871 20.5811 33.909 20.1591C34.331 19.7372 34.9033 19.5001 35.5 19.5001C36.0967 19.5001 36.669 19.7372 37.091 20.1591C37.5129 20.5811 37.75 21.1534 37.75 21.7501V28.5001Z" fill="#0B4062"/>
</g>
</svg>
